<?xml version="1.0" encoding="UTF-8" standalone="no"?> <svg xmlns="http://www.w3.org/2000/svg" viewBox="0 0 64 64"><g id="Layer_5" data-name="Layer 5"><path d="M49.3,60.13a1.56,1.56,0,0,1-.69-.17L32,51.23,15.39,60a1.51,1.51,0,0,1-1.58-.12,1.48,1.48,0,0,1-.59-1.46l3.17-18.5L3,26.79a1.5,1.5,0,0,1,.83-2.56l18.57-2.7L30.66,4.71a1.49,1.49,0,0,1,2.68,0l8.31,16.82,18.57,2.7a1.5,1.5,0,0,1,.83,2.56L47.61,39.88l3.17,18.5A1.51,1.51,0,0,1,49.3,60.13ZM32,48a1.57,1.57,0,0,1,.7.17l14.61,7.69L44.52,39.61A1.51,1.51,0,0,1,45,38.29L56.78,26.76,40.44,24.39a1.5,1.5,0,0,1-1.13-.82L32,8.76,24.69,23.57a1.5,1.5,0,0,1-1.13.82L7.22,26.76,19.05,38.29a1.51,1.51,0,0,1,.43,1.32L16.69,55.89,31.3,48.2A1.57,1.57,0,0,1,32,48Z"/></g></svg>